HIERARCHY
ROOT Hips
{
  OFFSET 13.6774 106.653 -34.4427
  CHANNELS 6 Xposition Yposition Zposition Zrotation Xrotation Yrotation
  JOINT ToSpine
  {
    OFFSET -2.69724 7.43032 -0.144315
    CHANNELS 3 Zrotation Xrotation Yrotation
    JOINT Spine
    {
      OFFSET -0.0310711 10.7595 1.96963
      CHANNELS 3 Zrotation Xrotation Yrotation
      JOINT Spine1
      {
        OFFSET 19.9056 3.91189 0.764692
        CHANNELS 3 Zrotation Xrotation Yrotation
        JOINT Neck
        {
          OFFSET 25.9749 7.03908 -0.130764
          CHANNELS 3 Zrotation Xrotation Yrotation
          JOINT Head
          {
            OFFSET 9.52751 0.295786 -0.907742
            CHANNELS 3 Zrotation Xrotation Yrotation
            End Site
            {
              OFFSET 16.4037 0.713936 2.7358
            }
          }
        }
        JOINT LeftShoulder
        {
          OFFSET 17.7449 4.33886 11.7777
          CHANNELS 3 Zrotation Xrotation Yrotation
          JOINT LeftArm
          {
            OFFSET 0.911315 1.27913 9.80584
            CHANNELS 3 Zrotation Xrotation Yrotation
            JOINT LeftForeArm
            {
              OFFSET 28.6126 1.18197 -3.53199
              CHANNELS 3 Zrotation Xrotation Yrotation
              JOINT LeftHand
              {
                OFFSET 27.5088 0.0218783 0.327423
                CHANNELS 3 Zrotation Xrotation Yrotation
                End Site
                {
                  OFFSET 18.6038 -0.000155887 0.382096
                }
              }
            }
          }
        }
        JOINT RightShoulder
        {
          OFFSET 17.1009 2.89543 -12.2328
          CHANNELS 3 Zrotation Xrotation Yrotation
          JOINT RightArm
          {
            OFFSET 1.4228 0.178766 -10.211
            CHANNELS 3 Zrotation Xrotation Yrotation
            JOINT RightForeArm
            {
              OFFSET 28.733 1.87905 2.64907
              CHANNELS 3 Zrotation Xrotation Yrotation
              JOINT RightHand
              {
                OFFSET 27.4588 0.290562 -0.101845
                CHANNELS 3 Zrotation Xrotation Yrotation
                End Site
                {
                  OFFSET 17.8396 -0.255518 -0.000602873
                }
              }
            }
          }
        }
      }
    }
  }
  JOINT LeftUpLeg
  {
    OFFSET -5.61296 -2.22332 -10.2353
    CHANNELS 3 Zrotation Xrotation Yrotation
    JOINT LeftLeg
    {
      OFFSET 2.56703 -44.7417 -7.93097
      CHANNELS 3 Zrotation Xrotation Yrotation
      JOINT LeftFoot
      {
        OFFSET 3.16933 -46.5642 -3.96578
        CHANNELS 3 Zrotation Xrotation Yrotation
        JOINT LeftToeBase
        {
          OFFSET 0.346054 -6.02161 12.8035
          CHANNELS 3 Zrotation Xrotation Yrotation
          End Site
          {
            OFFSET 0.134235 -1.35082 5.13018
          }
        }
      }
    }
  }
  JOINT RightUpLeg
  {
    OFFSET -5.7928 -1.72406 10.6446
    CHANNELS 3 Zrotation Xrotation Yrotation
    JOINT RightLeg
    {
      OFFSET -2.57161 -44.7178 -7.85259
      CHANNELS 3 Zrotation Xrotation Yrotation
      JOINT RightFoot
      {
        OFFSET -3.10148 -46.5936 -4.03391
        CHANNELS 3 Zrotation Xrotation Yrotation
        JOINT RightToeBase
        {
          OFFSET -0.0828122 -6.13587 12.8035
          CHANNELS 3 Zrotation Xrotation Yrotation
          End Site
          {
            OFFSET -0.131328 -1.35082 5.13018
          }
        }
      }
    }
  }
}
MOTION
Frames: 10
Frame Time: 0.03333333333333333
0.0000 93.1000 0.0000 75.0188 -31.9894 -13.0818 -70.5290 0.0104 87.7284 106.7610 71.3161 -21.2804 -0.0634 21.0948 2.3815 -144.4892 31.7105 167.5550 -146.4363 71.9426 -178.9938 0.2483 -12.5853 -32.2018 -85.9419 48.9647 -64.2879 16.0310 22.0072 -37.2654 0.0055 0.1195 -0.1452 -1.9588 4.9424 42.8283 -81.7600 -29.8947 79.9279 14.7964 -10.1341 56.9472 0.1922 0.0045 -0.0627 -25.4253 5.8110 95.6311 -9.1100 68.7575 1.9922 -1.2001 -11.5161 -1.5442 7.0356 -16.8068 18.3710 -32.0083 -2.3458 88.0969 4.1761 64.4164 -8.4598 -8.8547 -20.5604 0.9109 2.0282 -4.9833 -17.3027 
0.0000 93.1000 0.0000 74.1350 -31.9649 -12.7501 -70.5501 -0.2957 87.7375 106.9376 71.2958 -21.6344 -0.3747 22.0077 2.1382 -143.5826 31.6288 167.2328 -146.4899 71.8798 -178.5462 0.0693 -12.8090 -31.3846 -85.7706 48.9633 -62.3780 14.1546 22.9942 -33.2952 -0.1008 0.0689 -0.1045 -2.4505 4.7674 42.1402 -83.6018 -30.7101 80.9125 16.5881 -8.9139 62.9568 0.2274 -0.0928 -0.0279 -24.9164 4.2288 93.8624 -7.5479 62.3786 -2.1127 -2.1391 -8.6939 -1.1194 6.2722 -14.9133 14.6157 -35.0753 -1.2567 89.0824 3.2296 62.0020 -7.5232 -7.7714 -20.9395 0.7192 1.4560 -4.0233 -19.7475 
0.0000 93.1000 0.0000 74.0657 -32.6991 -13.8764 -70.5384 0.0450 87.5527 107.8673 72.0413 -22.0632 -0.7401 22.6900 2.3154 -143.5408 32.0147 167.1306 -148.8725 72.0976 -176.7304 0.6419 -12.0995 -31.3163 -85.9501 49.1292 -59.4350 13.0947 24.8284 -30.2017 -0.2791 0.4953 -0.4411 -2.1947 5.0765 41.9657 -84.9164 -30.8752 81.0048 16.3177 -7.6082 66.9719 0.3902 -0.8030 -0.5074 -27.0241 4.0113 92.8443 -5.7914 55.7710 -8.7015 -4.1479 -5.5689 -0.7751 5.6479 -14.6156 13.6665 -37.9417 -1.2038 90.1048 3.0807 59.2282 -6.3880 -8.4800 -21.7293 1.1277 2.7625 -3.7472 -23.5583 
0.0000 93.1000 0.0000 73.1095 -34.0524 -14.4670 -70.6405 -0.2488 87.6481 106.8448 73.0564 -20.7082 -0.9405 23.2411 2.1476 -144.5297 31.9327 168.1464 -149.3895 71.8167 -178.5424 0.5624 -11.2247 -31.0448 -88.9531 48.9886 -55.3896 12.2169 25.9886 -29.4330 -0.1904 -0.0138 -0.3148 -2.2975 5.0335 40.8456 -84.8750 -30.9267 81.9993 15.9098 -6.0447 69.8023 -0.0847 -0.4084 -0.3380 -29.0322 3.0788 92.7032 -4.9218 50.5772 -12.9922 -6.1621 -3.6399 -0.0453 4.9633 -15.2419 12.0927 -40.2914 -1.0335 91.8445 2.3789 56.3871 -8.8321 -9.0886 -22.3195 1.2085 1.9290 -4.1880 -18.2056 
0.0000 93.1000 0.0000 72.0738 -34.6871 -14.9176 -70.7371 -0.6183 87.7380 105.8051 73.4409 -18.6598 -0.8799 23.3883 2.3067 -145.9826 31.7536 168.0168 -148.1610 70.8698 -180.8345 0.5824 -10.6226 -30.3327 -89.5284 49.9564 -52.2500 10.8593 23.4245 -29.1117 0.1294 -0.3320 -0.2397 -2.4884 5.0555 40.8371 -84.8667 -31.2028 82.0485 15.3847 -4.9877 72.7889 0.0857 -0.0854 -0.4150 -31.0941 2.9606 92.7981 -4.2758 46.5128 -16.2934 -7.9777 -1.0871 0.8405 4.9424 -14.8248 12.9685 -42.0166 -0.2403 93.0591 1.7234 52.8758 -6.7738 -8.8483 -21.1385 0.8481 1.9399 -5.0360 -16.8417 
0.0000 93.1000 0.0000 71.1983 -35.8447 -15.5504 -70.7344 -0.8489 87.7040 104.7573 74.4131 -16.1377 -1.1782 24.0666 2.5228 -145.9514 31.6571 167.8887 -145.8849 71.2367 -181.2180 0.3266 -10.5027 -30.2916 -89.1610 52.0156 -50.2433 9.9582 20.5100 -27.9501 -0.1779 -0.5154 0.0537 -2.5906 5.0284 41.1875 -85.1905 -30.9552 80.9966 15.7718 -4.7305 74.9343 0.1222 -0.0550 -0.6542 -33.6838 2.3992 93.6565 -3.6223 43.4771 -15.8266 -8.0431 1.0266 1.2381 3.9713 -10.5705 8.8291 -44.9536 -1.4678 93.0365 2.2567 49.8078 -4.4749 -8.6686 -20.7349 0.8141 1.3314 -6.0071 -18.6764 
0.0000 93.1000 0.0000 70.4031 -36.7829 -15.7319 -70.7755 0.8381 87.8350 99.9128 74.0738 -10.9307 -0.2742 24.2495 1.7757 -146.7971 30.8502 167.4624 -147.2580 70.7063 -181.1038 1.0499 -10.0688 -29.2501 -90.8530 52.9211 -47.0841 7.7887 18.7389 -28.6815 0.4226 -0.0837 1.2748 -0.4910 4.9546 40.8214 -84.8953 -30.1962 80.5803 15.8533 -5.4105 74.8650 -0.7503 1.8609 1.8434 -35.8643 3.4166 94.2870 -4.3173 40.4134 -16.3198 -5.2485 2.2769 -0.0393 3.3503 -10.9469 6.2729 -46.3911 -0.7239 94.4954 1.2440 47.4840 -6.7881 -8.8738 -19.9298 0.4562 3.4333 -6.4936 -13.3989 
0.0000 93.1000 0.0000 69.4100 -37.9172 -16.9541 -70.8274 0.4049 87.5075 96.0192 74.2096 -6.2758 0.7367 24.1736 1.4651 -148.9425 30.8954 168.0819 -147.0750 69.9233 176.2313 1.2725 -10.0687 -28.3632 -90.9760 53.9307 -46.0681 8.0458 17.3731 -29.1902 0.4504 -0.0487 0.4094 -1.1628 4.7028 40.6180 -84.1088 -29.5611 79.7297 15.7348 -5.1332 74.6670 0.1494 0.9238 0.8255 -38.7964 3.2739 96.7539 -3.9613 38.7985 -17.0722 -2.8973 3.3576 0.0399 5.8093 -16.4867 9.4611 -47.7062 -1.7628 94.2014 1.1454 45.1203 -5.4141 -8.0255 -19.2324 0.7515 2.3575 -8.3000 -12.9884 
0.0000 93.1000 0.0000 68.1999 -37.7471 -16.6849 -70.8508 0.3416 87.8370 92.8654 74.1875 -3.5693 0.8786 24.1728 2.2453 -149.9344 30.8813 169.0562 -146.7372 69.6680 175.4096 1.0665 -9.9152 -29.1989 -91.8533 54.1406 -46.0657 7.9801 16.8595 -29.2010 0.2923 -0.0313 0.4446 -1.0597 4.6072 42.1522 -84.8661 -29.0384 79.0476 15.8997 -5.4726 73.8897 -0.1948 1.0970 1.0507 -38.8862 2.0323 96.0595 -2.8371 37.8807 -11.7785 1.3148 -0.9085 -0.8829 2.5266 -7.3580 2.8070 -50.2215 -1.9033 93.9256 1.2242 42.7085 -5.1222 -7.8877 -18.0096 0.8314 1.3803 -9.2278 -11.3872 
0.0000 93.1000 0.0000 68.3703 -36.7651 -17.4111 -70.9024 0.3285 87.7898 90.9540 74.2108 -3.2357 0.7233 23.3346 3.8765 -150.9786 30.8608 168.3460 -145.0941 68.9959 175.7970 0.7770 -10.1750 -29.2640 -91.1743 54.0078 -49.1942 8.7154 18.0040 -29.3624 0.2856 0.0836 0.7158 -1.3461 4.1516 43.0759 -86.1186 -29.1268 77.6408 15.4947 -6.0758 71.7207 -0.3011 1.0760 0.8044 -40.0887 0.8409 94.9339 -3.2961 36.5343 -9.8385 2.5042 -3.1722 -1.0662 0.6722 -4.8190 0.0008 -51.1201 -2.7502 94.1657 1.0140 40.2158 -3.9423 -7.3275 -15.8814 0.6481 2.5567 -10.4783 -14.0730 
